<?xml version="1.0" encoding="utf-8"?>
<!-- Generator: Adobe Illustrator 16.0.0, SVG Export Plug-In . SVG Version: 6.00 Build 0)  -->
<!DOCTYPE svg PUBLIC "-//W3C//DTD SVG 1.1//EN" "http://www.w3.org/Graphics/SVG/1.1/DTD/svg11.dtd">
<svg version="1.1" id="Layer_1" xmlns="http://www.w3.org/2000/svg" xmlns:xlink="http://www.w3.org/1999/xlink" x="0px" y="0px"
	 width="512px" height="512px" viewBox="0 0 512 512" enable-background="new 0 0 512 512" xml:space="preserve">
<g>
	<path fill="#FDFEFF" d="M488,214c-4.426,0-8-3.574-8-8s3.574-8,8-8c4.414,0,8-3.586,8-8V94c0-4.414-3.586-8-8-8H24
		c-4.414,0-8,3.586-8,8v96c0,4.414,3.586,8,8,8c4.426,0,8,3.574,8,8s-3.574,8-8,8c-13.23,0-24-10.77-24-24V94
		c0-13.23,10.77-24,24-24h464c13.23,0,24,10.77,24,24v96C512,203.23,501.23,214,488,214z"/>
	<path fill="#FDFEFF" d="M456,166c-4.426,0-8-3.574-8-8v-24H64v24c0,4.426-3.574,8-8,8s-8-3.574-8-8v-32c0-4.426,3.574-8,8-8h400
		c4.426,0,8,3.574,8,8v32C464,162.426,460.426,166,456,166z"/>
	<path fill="#FDFEFF" d="M88,166H56c-4.426,0-8-3.574-8-8s3.574-8,8-8h32c4.426,0,8,3.574,8,8S92.426,166,88,166z"/>
	<path fill="#FDFEFF" d="M456,166h-32c-4.426,0-8-3.574-8-8s3.574-8,8-8h32c4.426,0,8,3.574,8,8S460.426,166,456,166z"/>
	<path fill="#FDFEFF" d="M88,214H24c-4.426,0-8-3.574-8-8s3.574-8,8-8h64c4.426,0,8,3.574,8,8S92.426,214,88,214z"/>
	<path fill="#FDFEFF" d="M488,214h-64c-4.426,0-8-3.574-8-8s3.574-8,8-8h64c4.426,0,8,3.574,8,8S492.426,214,488,214z"/>
	<path fill="#FDFEFF" d="M88,422c-4.426,0-8-3.574-8-8V126c0-4.426,3.574-8,8-8s8,3.574,8,8v288C96,418.426,92.426,422,88,422z"/>
	<path fill="#FDFEFF" d="M424,422c-4.426,0-8-3.574-8-8V126c0-4.426,3.574-8,8-8s8,3.574,8,8v288C432,418.426,428.426,422,424,422z"
		/>
	<path fill="#FDFEFF" d="M120,454c-22.055,0-40-17.945-40-40c0-4.426,3.574-8,8-8s8,3.574,8,8c0,13.23,10.77,24,24,24
		c4.426,0,8,3.574,8,8S124.426,454,120,454z"/>
	<path fill="#FDFEFF" d="M392,454c-4.426,0-8-3.574-8-8s3.574-8,8-8c13.23,0,24-10.77,24-24c0-4.426,3.574-8,8-8s8,3.574,8,8
		C432,436.055,414.055,454,392,454z"/>
	<path fill="#FDFEFF" d="M392,454H120c-4.426,0-8-3.574-8-8s3.574-8,8-8h272c4.426,0,8,3.574,8,8S396.426,454,392,454z"/>
	<path fill="#FDFEFF" d="M168,406c-22.055,0-40-17.945-40-40s17.945-40,40-40s40,17.945,40,40S190.055,406,168,406z M168,342
		c-13.23,0-24,10.77-24,24s10.77,24,24,24s24-10.77,24-24S181.23,342,168,342z"/>
	<path fill="#FDFEFF" d="M168,374c-22.055,0-40-17.945-40-40s17.945-40,40-40s40,17.945,40,40S190.055,374,168,374z M168,310
		c-13.23,0-24,10.77-24,24s10.77,24,24,24s24-10.77,24-24S181.23,310,168,310z"/>
	<path fill="#FDFEFF" d="M152,254c-4.426,0-8-3.574-8-8V126c0-4.426,3.574-8,8-8s8,3.574,8,8v120C160,250.426,156.426,254,152,254z"
		/>
	<path fill="#FDFEFF" d="M184,254c-4.426,0-8-3.574-8-8V126c0-4.426,3.574-8,8-8s8,3.574,8,8v120C192,250.426,188.426,254,184,254z"
		/>
	<path fill="#FDFEFF" d="M288,406h-16c-4.426,0-8-3.574-8-8s3.574-8,8-8h16c4.426,0,8,3.574,8,8S292.426,406,288,406z"/>
	<path fill="#FDFEFF" d="M288,374h-16c-4.426,0-8-3.574-8-8s3.574-8,8-8h16c4.426,0,8,3.574,8,8S292.426,374,288,374z"/>
	<path fill="#FDFEFF" d="M288,342h-16c-4.426,0-8-3.574-8-8s3.574-8,8-8h16c4.426,0,8,3.574,8,8S292.426,342,288,342z"/>
	<path fill="#FDFEFF" d="M288,310h-16c-4.426,0-8-3.574-8-8s3.574-8,8-8h16c4.426,0,8,3.574,8,8S292.426,310,288,310z"/>
	<path fill="#FDFEFF" d="M288,262h-16c-4.426,0-8-3.574-8-8s3.574-8,8-8h16c4.426,0,8,3.574,8,8S292.426,262,288,262z"/>
	<path fill="#FDFEFF" d="M288,230h-16c-4.426,0-8-3.574-8-8s3.574-8,8-8h16c4.426,0,8,3.574,8,8S292.426,230,288,230z"/>
	<path fill="#FDFEFF" d="M288,198h-16c-4.426,0-8-3.574-8-8s3.574-8,8-8h16c4.426,0,8,3.574,8,8S292.426,198,288,198z"/>
	<path fill="#FDFEFF" d="M288,166h-16c-4.426,0-8-3.574-8-8s3.574-8,8-8h16c4.426,0,8,3.574,8,8S292.426,166,288,166z"/>
	<path fill="#FDFEFF" d="M352,406c-4.426,0-8-3.574-8-8V294c0-4.426,3.574-8,8-8s8,3.574,8,8v104C360,402.426,356.426,406,352,406z"
		/>
	<path fill="#FDFEFF" d="M384,406c-4.426,0-8-3.574-8-8v-56c0-4.426,3.574-8,8-8s8,3.574,8,8v56C392,402.426,388.426,406,384,406z"
		/>
</g>
</svg>
