<?xml version="1.0" encoding="utf-8"?>
<svg viewBox="0 0 113 167.048" xmlns="http://www.w3.org/2000/svg">
  <defs>
    <linearGradient id="linear-gradient" x1="5553.77" y1="405.64" x2="5590.36" y2="469.02" gradientTransform="translate(5623.09 492.33) rotate(180)" gradientUnits="userSpaceOnUse">
      <stop offset="0" stop-color="#1a0797"/>
      <stop offset="1" stop-color="#338dd8"/>
    </linearGradient>
    <linearGradient id="linear-gradient-2" x1="5630.39" y1="287.99" x2="5572.46" y2="277.77" gradientTransform="translate(5634.26 428.17) rotate(180)" gradientUnits="userSpaceOnUse">
      <stop offset="0" stop-color="#ff9934"/>
      <stop offset="1" stop-color="#fe7e00"/>
    </linearGradient>
    <linearGradient id="linear-gradient-3" x1="5551.44" y1="331.13" x2="5498.97" y2="350.23" gradientTransform="translate(-5444.03 -233.63)" gradientUnits="userSpaceOnUse">
      <stop offset="0" stop-color="#fe7e00"/>
      <stop offset="1" stop-color="#ff9934"/>
    </linearGradient>
    <linearGradient id="linear-gradient-4" x1="119.45" y1="16.31" x2="65.72" y2="29.68" gradientUnits="userSpaceOnUse">
      <stop offset="0" stop-color="#1a0797"/>
      <stop offset="0.99" stop-color="#2e6fc9"/>
      <stop offset="1" stop-color="#2e70ca"/>
    </linearGradient>
    <linearGradient id="linear-gradient-5" x1="39.98" y1="96.65" x2="11.73" y2="62.98" gradientUnits="userSpaceOnUse">
      <stop offset="0" stop-color="#1a0797"/>
      <stop offset="1" stop-color="#2e72cb"/>
    </linearGradient>
    <linearGradient id="linear-gradient-6" x1="50.1" y1="123.04" x2="50.1" y2="123.04" gradientUnits="userSpaceOnUse">
      <stop offset="0" stop-color="#1a0797"/>
      <stop offset="0.51" stop-color="#338dd8"/>
      <stop offset="1" stop-color="#35d8f4"/>
    </linearGradient>
    <style>.cls-1{fill:#ff9934;}.cls-2{fill:url(#linear-gradient);}.cls-3{fill:url(#linear-gradient-2);}.cls-4{fill:url(#linear-gradient-3);}.cls-5{fill:url(#linear-gradient-4);}.cls-6{fill:url(#linear-gradient-5);}.cls-7{fill:url(#linear-gradient-6);}.cls-8{fill:#2851bb;}</style>
  </defs>
  <path class="cls-1" d="M113.32,65.68V96.83A36.42,36.42,0,0,1,76.9,133.26a36.6,36.6,0,0,1-73.1,0H68.39a8.5,8.5,0,0,0,8.51-8.51q1-28.31,2-56.6Z" transform="matrix(1, 0, 0, 1, -3.8, -3.55)"/>
  <path class="cls-2" d="M3.8,105.85V74.7A36.42,36.42,0,0,1,40.22,38.27a36.6,36.6,0,0,1,73.1,0H48.73a8.49,8.49,0,0,0-6,2.49,8.49,8.49,0,0,0-2.49,6c0,2.58-.58,25.65-1.35,57.49Z" transform="matrix(1, 0, 0, 1, -3.8, -3.55)"/>
  <path class="cls-3" d="M3.8,133.26c.91,17.44,15.83,31.32,34.11,31.32S71.1,150.7,72,133.26Z" transform="matrix(1, 0, 0, 1, -3.8, -3.55)"/>
  <path class="cls-4" d="M113.33,65.68h0a0,0,0,0,1,0,0v58.18a5,5,0,0,1-5,5H76.9a0,0,0,0,1,0,0V102.11A36.43,36.43,0,0,1,113.33,65.68Z" transform="matrix(-1, 0, 0, -1, 186.429993, 190.990005)"/>
  <path class="cls-5" d="M113.33,38.28C112.42,20.83,97.5,7,79.22,7S46,20.83,45.12,38.28Z" transform="matrix(1, 0, 0, 1, -3.8, -3.55)"/>
  <path class="cls-6" d="M36.43,39.12h0a0,0,0,0,1,0,0V97.3a5,5,0,0,1-5,5H0a0,0,0,0,1,0,0V75.55A36.43,36.43,0,0,1,36.43,39.12Z"/>
  <path class="cls-7" d="M50.1,123" transform="matrix(1, 0, 0, 1, -3.8, -3.55)"/>
</svg>