<?xml version="1.0" encoding="utf-8"?>
<!-- Generator: Adobe Illustrator 16.0.0, SVG Export Plug-In . SVG Version: 6.00 Build 0)  -->
<!DOCTYPE svg PUBLIC "-//W3C//DTD SVG 1.1//EN" "http://www.w3.org/Graphics/SVG/1.1/DTD/svg11.dtd">
<svg version="1.1" id="Layer_1" xmlns="http://www.w3.org/2000/svg" xmlns:xlink="http://www.w3.org/1999/xlink" x="0px" y="0px"
	 width="479px" height="479px" viewBox="0 0 479 479" enable-background="new 0 0 479 479" xml:space="preserve">
<path fill="#FDFEFF" d="M302.854,133.634c1.307-1.852,2.343-3.878,3.075-6.022c3.286,0.553,6.421,1.805,9.182,3.672
	c5.555,3.754,12.067,5.835,18.77,6.007c2.116-0.008,4.226-0.203,6.308-0.577c8.768-1.497,16.582-6.417,21.721-13.675
	c2.752-4.338,7.203-7.317,12.26-8.209c5.061-0.889,10.26,0.386,14.325,3.524c7.316,5.063,16.341,7.013,25.093,5.418l-2.779-15.725
	c-5.057,0.893-10.257-0.386-14.321-3.52c-15.249-10.436-36.042-6.767-46.806,8.252c-2.752,4.338-7.204,7.317-12.264,8.209
	c-2.304,0.464-4.686,0.405-6.97-0.167c4.725-1.248,9.095-3.567,12.773-6.779c6.846-5.679,11.152-13.85,11.976-22.707
	c0.215-5.134,2.581-9.936,6.521-13.234c3.918-3.337,9.071-4.834,14.162-4.121c8.876,0.807,17.697-2.031,24.438-7.854l-10.287-12.225
	c-3.98,3.216-9.083,4.697-14.166,4.112c-18.423-1.407-34.601,12.162-36.412,30.554c-0.211,5.126-2.573,9.929-6.502,13.23
	c-3.935,3.297-9.071,4.794-14.158,4.116c-4.982-0.386-9.991,0.281-14.696,1.965c-2.197-3.813-5.406-6.947-9.271-9.056l35.695-71.305
	c1.239-2.483,1.104-5.43-0.361-7.789c-1.467-2.354-4.051-3.781-6.822-3.766c-5.625,0.051-11.022-2.198-14.945-6.225
	c-14.096-12.985-35.789-12.985-49.881,0c-3.961,3.992-9.352,6.233-14.973,6.233c-5.625,0-11.012-2.241-14.973-6.233
	c-14.107-12.977-35.805-12.977-49.912,0c-3.937,4.031-9.352,6.28-14.984,6.225c-2.768,0-5.34,1.431-6.794,3.785
	c-1.458,2.351-1.59,5.294-0.351,7.769l35.652,71.305c-6.042,3.224-10.396,8.903-11.936,15.577
	c-1.54,6.673-0.117,13.687,3.906,19.233c-73.199,19.662-124.128,85.954-124.261,161.75v143.701
	c0.023,22.036,17.881,39.89,39.917,39.917h287.402c22.032-0.027,39.89-17.881,39.917-39.917V295.384
	C426.981,219.588,376.053,153.296,302.854,133.634z M188.622,22.202c3.964-3.992,9.355-6.237,14.984-6.237
	c5.625,0,11.02,2.246,14.984,6.237c14.1,12.973,35.793,12.973,49.896,0c3.955-3.992,9.34-6.237,14.961-6.237
	c5.617,0,11.005,2.246,14.961,6.237c3.813,3.364,8.202,6.019,12.958,7.831L278.48,95.799h-69.967L175.64,30.041
	C180.401,28.225,184.798,25.57,188.622,22.202z M203.583,127.732c-4.413,0-7.983-3.575-7.983-7.983s3.571-7.983,7.983-7.983h79.834
	c4.409,0,7.983,3.575,7.983,7.983s-3.574,7.983-7.983,7.983H203.583z M411.151,439.085c0,13.227-10.725,23.95-23.95,23.95H99.799
	c-13.23,0-23.95-10.725-23.95-23.95V295.384c0.09-83.736,67.949-151.591,151.685-151.685h31.934
	c83.732,0.094,151.591,67.949,151.686,151.685v143.701H411.151z"/>
<path fill="#FDFEFF" d="M189.951,353.604l95.805-95.802l11.289,11.289l-95.801,95.806L189.951,353.604z"/>
<path fill="#FDFEFF" d="M275.434,319.334c-13.229,0-23.949,10.725-23.949,23.95s10.72,23.95,23.949,23.95
	c13.228,0,23.95-10.726,23.95-23.95C299.384,330.059,288.66,319.334,275.434,319.334z M275.434,351.268
	c-4.412,0-7.982-3.574-7.982-7.982c0-4.409,3.57-7.983,7.982-7.983c4.408,0,7.983,3.574,7.983,7.983
	C283.417,347.693,279.842,351.268,275.434,351.268z"/>
<path fill="#FDFEFF" d="M211.566,303.367c13.227,0,23.95-10.725,23.95-23.95s-10.724-23.95-23.95-23.95
	c-13.23,0-23.95,10.725-23.95,23.95S198.336,303.367,211.566,303.367z M211.566,271.434c4.409,0,7.983,3.574,7.983,7.983
	s-3.575,7.983-7.983,7.983c-4.413,0-7.983-3.574-7.983-7.983S207.154,271.434,211.566,271.434z"/>
<path fill="#FDFEFF" d="M243.5,199.583c-61.731,0-111.768,50.04-111.768,111.769c0,61.728,50.037,111.767,111.768,111.767
	c61.727,0,111.768-50.04,111.768-111.769C355.201,249.65,305.199,199.649,243.5,199.583z M243.5,407.15
	c-52.91,0-95.801-42.892-95.801-95.801c0-52.908,42.891-95.8,95.801-95.8c52.906,0,95.801,42.892,95.801,95.802
	C339.242,364.236,296.383,407.093,243.5,407.15z"/>
</svg>
