<?xml version="1.0" encoding="utf-8"?>
<!-- Generator: Adobe Illustrator 16.0.0, SVG Export Plug-In . SVG Version: 6.00 Build 0)  -->
<!DOCTYPE svg PUBLIC "-//W3C//DTD SVG 1.1//EN" "http://www.w3.org/Graphics/SVG/1.1/DTD/svg11.dtd">
<svg version="1.1" id="Layer_1" xmlns="http://www.w3.org/2000/svg" xmlns:xlink="http://www.w3.org/1999/xlink" x="0px" y="0px"
	 width="100px" height="100px" viewBox="0 0 100 100" enable-background="new 0 0 100 100" xml:space="preserve">
<path fill="#FDFEFF" d="M97.049,82.827l-9.915-9.917V1.675C87.134,0.75,86.384,0,85.458,0H35.189c-0.032,0-0.062,0.017-0.094,0.019
	c-0.154,0.008-0.306,0.039-0.451,0.09c-0.049,0.016-0.099,0.033-0.146,0.054c-0.188,0.08-0.356,0.194-0.502,0.334L13.89,20.603
	c-0.141,0.144-0.254,0.31-0.335,0.491c-0.024,0.054-0.037,0.104-0.056,0.158c-0.049,0.14-0.078,0.284-0.086,0.431
	c0,0.037-0.021,0.069-0.021,0.106v63.667c0,0.926,0.75,1.676,1.676,1.676h57.846l9.916,9.911c1.877,1.897,4.438,2.964,7.109,2.957
	c4.068,0.004,7.74-2.446,9.297-6.208c1.557-3.761,0.692-8.089-2.189-10.964L97.049,82.827L97.049,82.827z M82.845,92.325
	l-26.08-26.072l9.492-9.494l26.07,26.082L82.845,92.325z M55.347,62.931l-2.273-9.857l9.86,2.271L55.347,62.931z M33.516,5.72
	v14.387H19.128L33.516,5.72z M16.76,83.78V23.458H35.19c0.926,0,1.676-0.75,1.676-1.676V3.351h46.916v66.207l-16.34-16.353
	l-0.019-0.013c-0.138-0.131-0.298-0.238-0.472-0.316c-0.049-0.02-0.094-0.034-0.141-0.052c-0.061-0.026-0.118-0.05-0.18-0.068
	l-15.416-3.552c-0.563-0.131-1.154,0.039-1.563,0.445c-0.409,0.41-0.577,1.002-0.448,1.564l3.554,15.415
	c0.02,0.062,0.042,0.122,0.067,0.181c0.019,0.045,0.03,0.09,0.053,0.138c0.076,0.177,0.186,0.338,0.32,0.477l0.008,0.015
	l16.352,16.343L16.76,83.78L16.76,83.78z M94.674,94.679c-1.255,1.258-2.955,1.965-4.731,1.965c-1.775,0-3.478-0.707-4.73-1.965
	l0.789-0.789l8.688-8.688c1.257,1.256,1.963,2.96,1.96,4.736c-0.002,1.777-0.714,3.479-1.977,4.731L94.674,94.679L94.674,94.679z"/>
<path fill="#FDFEFF" d="M28.487,33.513h43.566c0.926,0,1.676-0.75,1.676-1.677c0-0.925-0.75-1.676-1.676-1.676H28.487
	c-0.925,0-1.675,0.75-1.675,1.676C26.813,32.763,27.563,33.513,28.487,33.513z"/>
<path fill="#FDFEFF" d="M28.487,43.565h43.566c0.926,0,1.676-0.75,1.676-1.676c0-0.927-0.75-1.676-1.676-1.676H28.487
	c-0.925,0-1.675,0.75-1.675,1.676C26.813,42.813,27.563,43.565,28.487,43.565z"/>
<path fill="#FDFEFF" d="M40.218,50.269H28.489c-0.926,0-1.676,0.75-1.676,1.676s0.75,1.676,1.676,1.676h11.729
	c0.925,0,1.676-0.75,1.676-1.676S41.143,50.269,40.218,50.269z"/>
</svg>
