<?xml version="1.0" encoding="utf-8"?>
<!-- Generator: Adobe Illustrator 16.0.0, SVG Export Plug-In . SVG Version: 6.00 Build 0)  -->
<!DOCTYPE svg PUBLIC "-//W3C//DTD SVG 1.1//EN" "http://www.w3.org/Graphics/SVG/1.1/DTD/svg11.dtd">
<svg version="1.1" id="Capa_1" xmlns="http://www.w3.org/2000/svg" xmlns:xlink="http://www.w3.org/1999/xlink" x="0px" y="0px"
	 width="512px" height="512px" viewBox="0 0 512 512" enable-background="new 0 0 512 512" xml:space="preserve">
<g>
	<path fill="#FDFEFF" d="M447.453,425.684C487.565,380.479,512,321.051,512,256c0-67.681-26.447-129.262-69.491-175.086v-0.009
		c-0.035-0.053-0.088-0.071-0.114-0.115C397.56,33.13,334.742,2.622,264.871,0.229l-0.008-0.009l-4.988-0.132
		C258.586,0.044,257.298,0,256,0s-2.586,0.044-3.875,0.088l-4.97,0.132l-0.009,0.009C177.275,2.622,114.458,33.13,69.623,80.79
		c-0.035,0.044-0.088,0.062-0.115,0.115c0,0,0,0.009-0.009,0.018C26.447,126.738,0,188.319,0,256
		c0,65.051,24.435,124.478,64.547,169.684c0.053,0.08,0.053,0.168,0.115,0.247c0.159,0.221,0.388,0.327,0.556,0.53
		c45.074,50.388,109.745,82.847,181.919,85.318l0.009,0.009l4.97,0.133c1.298,0.035,2.586,0.079,3.884,0.079
		s2.586-0.044,3.875-0.088l4.971-0.133l0.008-0.009c72.254-2.48,136.996-35.001,182.069-85.495c0.115-0.15,0.3-0.194,0.406-0.354
		C447.399,425.852,447.399,425.764,447.453,425.684z M17.876,264.828h105.958c0.998,37.42,8.307,73.78,21.318,107.846
		c-25.105,9.084-49.108,21.266-71.601,36.467C40.475,369.797,19.889,319.646,17.876,264.828z M78.371,97.307
		c21.963,14.283,45.348,25.724,69.738,34.269c-14.937,36.255-23.199,75.343-24.276,115.597H17.876
		C19.986,189.731,42.479,137.428,78.371,97.307z M494.124,247.172H388.167c-1.077-40.254-9.34-79.342-24.276-115.597
		c24.391-8.545,47.775-19.986,69.738-34.269C469.521,137.428,492.015,189.731,494.124,247.172z M247.172,132.087
		c-25.521-0.724-50.573-4.528-74.778-11.326c17.894-36.705,43.158-69.835,74.778-97.421V132.087z M247.172,149.742v97.43H141.489
		c1.085-38.382,9.136-75.608,23.534-110.124C191.559,144.737,219.109,148.992,247.172,149.742z M264.828,149.742
		c28.063-0.75,55.613-4.996,82.158-12.694c14.397,34.516,22.448,71.742,23.534,110.124H264.828V149.742z M264.828,132.087V23.34
		c31.62,27.586,56.885,60.716,74.778,97.421C315.4,127.559,290.348,131.363,264.828,132.087z M356.714,115.394
		c-16.958-35.531-40.492-67.902-69.632-95.647c51.694,6.762,98.207,30.138,134.029,64.601
		C400.772,97.253,379.198,107.635,356.714,115.394z M155.286,115.394c-22.484-7.759-44.059-18.141-64.389-31.046
		c35.813-34.463,82.335-57.838,134.029-64.601C195.778,47.492,172.244,79.863,155.286,115.394z M141.489,264.828h105.684v88.611
		c-29.193,0.776-57.794,5.332-85.283,13.603C149.469,334.777,142.486,300.306,141.489,264.828z M247.172,371.094V488.66
		c-33.845-29.528-60.381-65.404-78.424-105.199C194.057,376.002,220.345,371.854,247.172,371.094z M264.828,488.66V371.094
		c26.826,0.75,53.115,4.908,78.424,12.359C325.208,423.256,298.673,459.132,264.828,488.66z M264.828,353.439v-88.611h105.684
		c-0.998,35.478-7.98,69.949-20.409,102.223C322.622,358.771,294.021,354.216,264.828,353.439z M388.167,264.828h105.957
		c-2.013,54.818-22.59,104.969-55.676,144.313c-22.492-15.201-46.494-27.383-71.601-36.467
		C379.869,338.608,387.169,302.248,388.167,264.828z M85.548,422.364c20.886-13.876,43.123-25.034,66.357-33.376
		c17.169,38.487,41.816,73.56,73.013,103.265C170.62,485.146,122.024,459.723,85.548,422.364z M287.082,492.253
		c31.196-29.696,55.843-64.769,73.013-103.265c23.234,8.342,45.462,19.5,66.357,33.376
		C389.977,459.723,341.381,485.146,287.082,492.253z"/>
</g>
</svg>
