<?xml version="1.0" encoding="utf-8"?>
<!-- Generator: Adobe Illustrator 16.0.0, SVG Export Plug-In . SVG Version: 6.00 Build 0)  -->
<!DOCTYPE svg PUBLIC "-//W3C//DTD SVG 1.1//EN" "http://www.w3.org/Graphics/SVG/1.1/DTD/svg11.dtd">
<svg version="1.1" id="Capa_1" xmlns="http://www.w3.org/2000/svg" xmlns:xlink="http://www.w3.org/1999/xlink" x="0px" y="0px"
	 width="512px" height="512px" viewBox="0 0 512 512" enable-background="new 0 0 512 512" xml:space="preserve">
<g>
	<g>
		<g>
			<path fill="#FDFEFF" d="M480.451,40.081H31.549C14.152,40.081,0,54.233,0,71.629v304.613c0,17.396,14.152,31.548,31.549,31.548
				h151.826l-6.141,49.129H151.79c-4.143,0-7.5,3.358-7.5,7.5s3.357,7.5,7.5,7.5h208.42c4.143,0,7.5-3.358,7.5-7.5
				s-3.357-7.5-7.5-7.5h-25.443l-6.142-49.129h151.826c17.396,0,31.549-14.151,31.549-31.548V71.629
				C512,54.233,497.848,40.081,480.451,40.081z M192.351,456.919l6.142-49.129h27.603l2.708,10.83
				c3.126,12.503,14.31,21.234,27.197,21.234c12.888,0,24.071-8.731,27.196-21.234l2.709-10.83h27.603l6.141,49.129H192.351z
				 M241.557,407.79h28.884l-1.797,7.192c-1.453,5.813-6.652,9.872-12.646,9.872s-11.191-4.061-12.645-9.872L241.557,407.79z
				 M497,376.242L497,376.242c0,9.125-7.424,16.548-16.549,16.548H31.549c-9.125,0-16.549-7.423-16.549-16.548V71.629
				c0-9.125,7.424-16.548,16.549-16.548h448.902c9.125,0,16.549,7.423,16.549,16.548V376.242L497,376.242z"/>
		</g>
	</g>
	<g>
		<g>
			<path fill="#FDFEFF" d="M424.338,72.146H39.564c-4.143,0-7.5,3.357-7.5,7.5v288.581c0,4.143,3.357,7.5,7.5,7.5h16.033
				c4.143,0,7.5-3.357,7.5-7.5c0.001-4.143-3.357-7.5-7.499-7.5h-8.533V87.146h377.273c4.144,0,7.5-3.358,7.5-7.5
				C431.838,75.503,428.481,72.146,424.338,72.146z"/>
		</g>
	</g>
	<g>
		<g>
			<path fill="#FDFEFF" d="M472.436,72.146h-16.032c-4.144,0-7.5,3.357-7.5,7.5c0,4.142,3.356,7.5,7.5,7.5h8.532v273.581H87.662
				c-4.143,0-7.5,3.357-7.5,7.5s3.357,7.5,7.5,7.5h384.772c4.144,0,7.5-3.357,7.5-7.5V79.646
				C479.936,75.503,476.578,72.146,472.436,72.146z"/>
		</g>
	</g>
	<g>
		<g>
			<path fill="#FDFEFF" d="M358.1,155.184c-1.348-1.723-3.381-2.771-5.564-2.87l-176.354-8.017
				c-0.138-0.006-0.273-0.009-0.412-0.007c-1.044-3.427-3.25-6.399-6.236-8.391l-21.597-14.398c-3.446-2.297-8.103-1.366-10.4,2.081
				c-2.297,3.447-1.366,8.103,2.08,10.4l21.596,14.396c0.102,0.068,0.177,0.171,0.211,0.289l27.509,96.281
				c0.858,3.002,2.27,5.7,4.083,8.03l-10.065,20.129c-2.423,4.846-2.169,10.488,0.679,15.097c1.033,1.671,2.343,3.094,3.848,4.233
				c-1.97,3.439-3.103,7.418-3.103,11.658c0,12.976,10.557,23.531,23.532,23.531c12.975,0,23.532-10.557,23.532-23.531
				c0-3.01-0.574-5.886-1.608-8.533h68.377c-1.034,2.647-1.607,5.523-1.607,8.533c0,12.976,10.557,23.531,23.531,23.531
				c12.976,0,23.532-10.557,23.532-23.531c0-3.765-0.893-7.322-2.471-10.479c1.514-1.372,2.471-3.349,2.471-5.554
				c0-4.142-3.357-7.5-7.5-7.5H196.825c-0.107,0-0.288,0-0.439-0.244c-0.151-0.244-0.07-0.405-0.022-0.502l9.272-18.543
				c1.887,0.484,3.853,0.746,5.865,0.746c0.927,0,1.863-0.055,2.805-0.164l105.386-12.398c13.61-1.602,24.562-11.706,27.25-25.146
				l12.605-63.034C359.977,159.132,359.448,156.907,358.1,155.184z M320.129,295.564c4.705,0,8.532,3.828,8.532,8.533
				c0,4.704-3.827,8.531-8.532,8.531s-8.532-3.826-8.532-8.531S315.424,295.564,320.129,295.564z M207.904,295.564
				c4.705,0,8.532,3.828,8.532,8.533c0,4.704-3.827,8.531-8.532,8.531c-4.705,0-8.532-3.826-8.532-8.531
				S203.199,295.564,207.904,295.564z M189.512,192.387l-9.399-32.895l29.985,1.363l5.199,31.532H189.512z M212.554,246.958
				c-4.182,0.492-8.047-2.087-9.201-6.13l-9.555-33.441h23.972l6.301,38.216L212.554,246.958z M256.518,241.786l-17.533,2.063
				l-6.011-36.461h23.543V241.786z M256.518,192.387H230.5l-5.084-30.835l31.102,1.414V192.387z M294.499,237.317l-22.981,2.704
				v-32.634h25.69L294.499,237.317z M298.566,192.387h-27.049v-28.74l29.528,1.342L298.566,192.387z M332.232,221.371
				c-1.41,7.048-7.154,12.349-14.293,13.189l-8.218,0.967l2.547-28.139h22.76L332.232,221.371z M338.029,192.387h-24.401
				l2.418-26.716l27.08,1.231L338.029,192.387z"/>
		</g>
	</g>
</g>
</svg>
